<?xml version="1.0" encoding="UTF-8"?>
<svg xmlns="http://www.w3.org/2000/svg" xmlns:xlink="http://www.w3.org/1999/xlink" viewBox="0 0 412.55 144.66">
  <defs>
    <style>
      .cls-1 {
        fill: url(#linear-gradient-2);
      }

      .cls-2 {
        fill: url(#linear-gradient);
        mix-blend-mode: screen;
        opacity: .3;
      }

      .cls-3 {
        fill: url(#linear-gradient-6);
      }

      .cls-4 {
        isolation: isolate;
      }

      .cls-5 {
        letter-spacing: -.07em;
      }

      .cls-6 {
        font-size: 21px;
      }

      .cls-6, .cls-7 {
        fill: #fff;
        font-family: Roboto-Bold, Roboto;
      }

      .cls-8 {
        fill: url(#linear-gradient-5);
      }

      .cls-9 {
        letter-spacing: -.02em;
      }

      .cls-10 {
        fill: url(#linear-gradient-3);
      }

      .cls-7 {
        font-size: 42px;
      }

      .cls-11 {
        fill: url(#linear-gradient-4);
      }
    </style>
    <linearGradient id="linear-gradient" x1="4.26" y1="95.62" x2="91" y2="95.62" gradientUnits="userSpaceOnUse">
      <stop offset="0" stop-color="#000"/>
      <stop offset=".08" stop-color="#030201"/>
      <stop offset=".15" stop-color="#0d0b05"/>
      <stop offset=".21" stop-color="#1e1a0b"/>
      <stop offset=".27" stop-color="#353015"/>
      <stop offset=".32" stop-color="#544b21"/>
      <stop offset=".38" stop-color="#7a6d2f"/>
      <stop offset=".43" stop-color="#a79541"/>
      <stop offset=".48" stop-color="#d9c355"/>
      <stop offset=".5" stop-color="#eed55d"/>
      <stop offset=".5" stop-color="#e7ce5a"/>
      <stop offset=".5" stop-color="#d4bd52"/>
      <stop offset=".5" stop-color="#b4a146"/>
      <stop offset=".5" stop-color="#897a35"/>
      <stop offset=".5" stop-color="#51491f"/>
      <stop offset=".5" stop-color="#0e0d05"/>
      <stop offset=".5" stop-color="#000"/>
    </linearGradient>
    <linearGradient id="linear-gradient-2" x1=".64" y1="95.62" x2="92.84" y2="95.62" gradientUnits="userSpaceOnUse">
      <stop offset="0" stop-color="#b27f2a"/>
      <stop offset=".06" stop-color="#b6852e"/>
      <stop offset=".14" stop-color="#c49839"/>
      <stop offset=".24" stop-color="#d9b74b"/>
      <stop offset=".33" stop-color="#f4dd62"/>
      <stop offset=".52" stop-color="#f4e38b"/>
      <stop offset=".66" stop-color="#f4dd62"/>
      <stop offset="1" stop-color="#b27f2a"/>
    </linearGradient>
    <linearGradient id="linear-gradient-3" x1="14.71" y1="83.6" x2="78.77" y2="83.6" xlink:href="#linear-gradient-2"/>
    <linearGradient id="linear-gradient-4" x1="7.51" y1="94.89" x2="85.98" y2="94.89" xlink:href="#linear-gradient-2"/>
    <linearGradient id="linear-gradient-5" x1="39.47" y1="31.65" x2="54.01" y2="31.65" xlink:href="#linear-gradient-2"/>
    <linearGradient id="linear-gradient-6" x1="6.7" y1="21.23" x2="86.79" y2="21.23" xlink:href="#linear-gradient-2"/>
  </defs>
  <g class="cls-4">
    <g id="Layer_2" data-name="Layer 2">
      <g id="Layer_1-2" data-name="Layer 1">
        <g>
          <path class="cls-2" d="M0,46.58v28.83c0,28.05,17.38,54.16,46.1,69.25h0c28.72-15.08,46.1-41.19,46.1-69.25v-28.83H0Z"/>
          <path class="cls-1" d="M88.32,51.11v24.31c0,12.87-3.98,25.66-11.52,36.98-7.21,10.84-17.57,20.18-30.05,27.12-12.48-6.95-22.84-16.29-30.05-27.12-7.54-11.32-11.52-24.11-11.52-36.98v-24.31H88.32m4.53-4.53H.64v28.83c0,28.05,17.38,54.16,46.1,69.25h0c28.72-15.08,46.1-41.19,46.1-69.25v-28.83h0Z"/>
          <path class="cls-10" d="M78.77,72.06c0,.98-.13,2.06-.39,3.24s-.51,1.76-.76,1.76c-.19,0-.28-.1-.28-.28,0-.06,.02-.14,.06-.26,.5-1.32,.75-2.75,.75-4.28,0-2.38-.71-4.3-2.13-5.75-1.42-1.45-3.3-2.17-5.62-2.17-3.2,0-6.44,1.03-9.72,3.09,2.8,2.23,4.2,4.65,4.2,7.27,0,2.21-.89,4.1-2.66,5.66-1.77,1.56-4.11,2.52-7,2.88,1.97,1.14,2.95,2.79,2.95,4.95,0,1.44-.5,3.63-1.51,6.57-.66,1.93-.99,3.45-.99,4.55s.41,2.1,1.22,2.88c.82,.79,1.81,1.18,2.99,1.18s2.36-.4,3.44-1.21c.25-.15,.42-.23,.51-.23,.15,0,.23,.08,.23,.23,0,.32-.53,.69-1.59,1.11-1.06,.42-1.98,.63-2.76,.63-1.82,0-3.35-.73-4.58-2.17-1.23-1.45-1.85-3.25-1.85-5.39,0-1.55,.68-4.29,2.05-8.22,.34-1,.51-1.86,.51-2.56,0-.89-.37-1.65-1.11-2.27-1.21,.11-1.9,.17-2.07,.17-1.87,0-2.81-.24-2.81-.71,0-.3,.47-.45,1.42-.45,1.12,0,2.23,.22,3.35,.65,2.25-.36,4.1-1.4,5.54-3.14,1.44-1.73,2.16-3.77,2.16-6.12,0-1.85-.72-3.63-2.16-5.34l-.28-.37c-4.15,3.11-8.07,8.52-11.76,16.25-2.23,4.68-4.28,8.05-6.14,10.11-1.86,2.06-4.46,3.93-7.81,5.6-3.96,1.93-7.49,2.9-10.6,2.9-2.54,0-4.65-.58-6.33-1.75-1.69-1.17-2.53-2.62-2.53-4.36,0-.97,.29-1.8,.88-2.5,.59-.7,1.28-1.05,2.07-1.05,1.15,0,1.73,.64,1.73,1.93,0,.64-.19,1.19-.58,1.65-.39,.45-.87,.68-1.43,.68-.99,0-1.46-.51-1.42-1.53,.02-.42-.02-.62-.11-.62-.3,0-.45,.5-.45,1.51,0,1.57,.77,2.88,2.31,3.92s3.49,1.56,5.83,1.56c4.15,0,7.9-1.53,11.27-4.6,1.48-1.34,2.73-2.72,3.78-4.12,1.14-1.51,3.62-5.19,7.44-11.02,1.91-2.88,4.16-5.77,6.76-8.66,2.59-2.9,4.8-4.97,6.61-6.22-2.95-2.52-7.29-3.78-13.01-3.78-7.99,0-14.94,2.89-20.85,8.66-4.85,4.73-7.27,9.19-7.27,13.38,0,2.12,.68,3.81,2.05,5.06,1.36,1.25,3.21,1.87,5.54,1.87,3.81,0,7.74-1.83,11.8-5.48,4.06-3.65,6.09-7.21,6.09-10.65,0-2.75-1.41-4.12-4.23-4.12s-5.85,1.58-9.08,4.73c-3.23,3.15-4.84,6.11-4.84,8.87,0,.68,.23,1.27,.69,1.76,.46,.49,.99,.74,1.6,.74,.32,0,.49,.09,.49,.26,0,.15-.18,.23-.54,.23-.91,0-1.68-.41-2.31-1.24-.63-.82-.94-1.83-.94-3.02,0-2.95,1.62-5.83,4.86-8.63,3.24-2.8,6.56-4.2,9.97-4.2s4.89,1.51,4.89,4.52c0,3.67-2.07,7.39-6.22,11.14s-8.24,5.62-12.27,5.62c-2.63,0-4.74-.79-6.32-2.37-1.58-1.58-2.37-3.7-2.37-6.35,0-5.36,3.03-10.25,9.08-14.67,6.05-4.42,12.74-6.63,20.07-6.63,5.57,0,10.24,1.24,14.03,3.72,3.47-2.16,6.82-3.24,10.06-3.24,2.54,0,4.58,.76,6.12,2.27,1.54,1.51,2.32,3.51,2.32,5.99Z"/>
          <path class="cls-11" d="M7.51,52.8v25.17c0,39.06,38.55,58.71,38.94,58.9l.21,.11,.21-.1c.39-.19,39.1-19.42,39.1-58.91v-25.17H7.51Zm77.5,25.17c0,37.34-35.24,56.33-38.34,57.92-3.08-1.62-38.19-20.96-38.19-57.92v-24.2H85v24.2Z"/>
          <g>
            <path class="cls-8" d="M46.74,25.34l-7.27,6.31,7.27,6.31,7.27-6.31-7.27-6.31Zm-4.07,6.31l4.07-3.63,4.07,3.63-4.07,3.63-4.07-3.63Z"/>
            <path class="cls-3" d="M72.47,12.37l4.99,9.59s-1.85,5.97-11.94,5.97-16.82-8.81-16.82-8.81l9.44-8.73L46.74,0l-11.39,10.38,9.44,8.73s-6.72,8.81-16.82,8.81-11.93-5.97-11.93-5.97l4.99-9.59L6.7,7.44l6.84,35.02H79.95l6.84-35.02-14.32,4.93Zm-33.86-1.99l8.14-7.35,8.15,7.35-8.15,7.25-8.14-7.25Zm39.28,29.91H15.6L9.63,10.38l8.46,2.85-4.56,8.73s2.6,7.95,14.22,7.95,18.99-9.42,18.99-9.42c0,0,7.38,9.42,18.99,9.42s14.22-7.95,14.22-7.95l-4.56-8.73,8.47-2.85-5.98,29.91Z"/>
          </g>
        </g>
        <g>
          <text class="cls-7" transform="translate(126.03 75.38)"><tspan x="0" y="0">R</tspan><tspan class="cls-9" x="26.8" y="0">O</tspan><tspan class="cls-5" x="54.92" y="0">Y</tspan><tspan x="77.81" y="0">AL DESIGN</tspan></text>
          <text class="cls-6" transform="translate(126.35 99.51)"><tspan x="0" y="0">PRECIZIE IN FIECARE FINISAJ</tspan></text>
        </g>
      </g>
    </g>
  </g>
</svg>